<?xml version="1.0" encoding="UTF-8"?>
<!DOCTYPE svg PUBLIC "-//W3C//DTD SVG 1.1//EN" "http://www.w3.org/Graphics/SVG/1.1/DTD/svg11.dtd">
<!-- Creator: CorelDRAW -->
<svg xmlns="http://www.w3.org/2000/svg" xml:space="preserve" width="39.6456mm" height="49.063mm" version="1.1" style="shape-rendering:geometricPrecision; text-rendering:geometricPrecision; image-rendering:optimizeQuality; fill-rule:evenodd; clip-rule:evenodd"
viewBox="0 0 1193.78 1477.35"
 xmlns:xlink="http://www.w3.org/1999/xlink"
 xmlns:xodm="http://www.for.work">
 <defs>
  <style type="text/css">
   <![CDATA[
    .fil0 {fill:#002C51}
   ]]>
  </style>
 </defs>
 <g id="圖層_x0020_1">
  <metadata id="CorelCorpID_0Corel-Layer"/>
  <path class="fil0" d="M646.33 197.02c129.3,-2.4 241.05,40.67 220.3,185.6 -21.71,151.67 -180.56,124.38 -289.09,128.59 -64.73,2.51 -144.86,2.83 -209.68,1.26 -24.02,-0.58 -18.82,-13.47 -19.33,-35.65l0.17 -156.12c1.9,-136.53 -8,-124.97 38.43,-125.15 68.71,0.34 204.81,0.39 259.2,1.47zm-645.96 -43.74c40.97,8.43 78,-2.22 97.9,50.04 9.6,25.2 5.65,108.63 5.66,140.1l0.03 583.82c-0.12,32.37 3.82,114.15 -5.56,140.4 -18.28,51.11 -57.25,41.49 -98.39,46.84l0.58 156.92 454.87 0.18c-51.95,-57.07 -77.93,-74.22 -106.22,-151.66 -132.4,-362.47 318.25,-678.37 616.7,-369.44 101.14,104.69 101.58,265.17 50.74,394.68l40.21 39.26c160.02,-112.16 177.98,-366.96 48.8,-499.73 -73.07,-75.1 -78.44,-61.18 -146.64,-93.98 19.96,-18.92 43.41,-27.33 67.19,-51.04 68.67,-68.44 95.45,-164.98 74.9,-258.3 -26,-118.03 -98.6,-206.24 -213.87,-247.67 -124.43,-44.72 -296.79,-32.18 -429.49,-31.86 -76.53,0.18 -152.83,0.17 -229.35,1.38 -61.54,0.98 -173.54,-7 -228.42,2.1l0.37 147.95z"/>
  <path class="fil0" d="M415.82 1024.12c15.5,153.9 155.09,266.34 308.65,250.95 154.7,-15.5 267.04,-153.91 251.96,-308.49 -15.07,-154.45 -154.28,-266.95 -308.3,-252.11 -155.13,14.95 -267.89,155.05 -252.31,309.66z"/>
  <path class="fil0" d="M912.76 1266.32c3.89,21.5 21.76,17.43 23.11,38 1.64,25.13 0.04,20.83 17.53,39.95 17.85,19.52 108.28,118.63 122.77,127.06 33.4,19.44 58.2,-13.02 78.98,-30.24 77.64,-64.31 22.65,-92 -28.92,-142.14 -19.27,-18.74 -43.2,-45.33 -63.26,-61.69 -25.83,-21.06 -27.31,-5.66 -45.04,-16.09 -11.52,-6.78 -22.09,-22.15 -34.98,-27.24 -22.91,21.6 -13.26,33.38 -70.19,72.37z"/>
 </g>
</svg>
