<?xml version="1.0" encoding="UTF-8"?>
<!DOCTYPE svg PUBLIC "-//W3C//DTD SVG 1.1//EN" "http://www.w3.org/Graphics/SVG/1.1/DTD/svg11.dtd">
<!-- Creator: CorelDRAW -->
<svg xmlns="http://www.w3.org/2000/svg" xml:space="preserve" width="39.6452mm" height="49.0634mm" version="1.1" style="shape-rendering:geometricPrecision; text-rendering:geometricPrecision; image-rendering:optimizeQuality; fill-rule:evenodd; clip-rule:evenodd"
viewBox="0 0 3964.58 4906.41"
 xmlns:xlink="http://www.w3.org/1999/xlink"
 xmlns:xodm="http://www.for.work">
 <defs>
  <style type="text/css">
   <![CDATA[
    .fil0 {fill:white}
   ]]>
  </style>
 </defs>
 <g id="圖層_x0020_1">
  <metadata id="CorelCorpID_0Corel-Layer"/>
  <path class="fil0" d="M2146.45 654.39c429.42,-7.97 800.54,135.07 731.63,616.39 -72.1,503.71 -599.65,413.08 -960.08,427.06 -214.97,8.34 -481.09,9.4 -696.36,4.18 -79.77,-1.93 -62.5,-44.73 -64.2,-118.39l0.56 -518.49c6.31,-453.43 -26.57,-415.04 127.63,-415.63 228.19,1.13 680.19,1.3 860.82,4.88zm-2145.27 -145.26c136.06,28 259.04,-7.37 325.13,166.18 31.88,83.69 18.76,360.77 18.8,465.28l0.1 1938.9c-0.4,107.5 12.69,379.1 -18.46,466.28 -60.71,169.74 -190.13,137.79 -326.75,155.56l1.93 521.14 1510.65 0.6c-172.53,-189.53 -258.81,-246.49 -352.77,-503.67 -439.71,-1203.79 1056.93,-2252.91 2048.1,-1226.94 335.9,347.69 337.36,880.64 168.51,1310.76l133.54 130.38c531.44,-372.49 591.08,-1218.7 162.07,-1659.64 -242.67,-249.41 -260.5,-203.18 -487,-312.11 66.29,-62.83 144.17,-90.76 223.14,-169.5 228.05,-227.29 316.99,-547.91 248.74,-857.83 -86.35,-391.99 -327.45,-684.94 -710.28,-822.53 -413.24,-148.52 -985.65,-106.87 -1426.36,-105.81 -254.16,0.6 -507.56,0.56 -761.68,4.58 -204.38,3.25 -576.34,-23.25 -758.6,6.97l1.23 491.35 -0.06 0.06z"/>
  <path class="fil0" d="M1380.91 3401.24c51.48,511.11 515.07,884.53 1025.05,833.42 513.77,-51.48 886.85,-511.15 836.77,-1024.52 -50.05,-512.94 -512.38,-886.55 -1023.89,-837.27 -515.2,49.65 -889.68,514.93 -837.93,1028.41l0 -0.04z"/>
  <path class="fil0" d="M3031.29 4205.6c12.92,71.4 72.27,57.89 76.75,126.2 5.45,83.46 0.13,69.18 58.22,132.67 59.28,64.83 359.61,393.98 407.73,421.98 110.92,64.56 193.28,-43.24 262.29,-100.43 257.84,-213.57 75.22,-305.53 -96.04,-472.06 -64,-62.24 -143.47,-150.54 -210.09,-204.87 -85.78,-69.94 -90.7,-18.8 -149.58,-53.44 -38.26,-22.52 -73.36,-73.56 -116.17,-90.46 -76.08,71.73 -44.04,110.86 -233.1,240.34l0 0.07z"/>
 </g>
</svg>
